{"title":"The Veronicas - You Ruin Me (2014.Pop)","uid":11549459,"size":91506852,"categoryP":"video","categoryS":"music_videos","magnet":"?xt=urn:btih:971160f653582ee7f95e2bf4bd6b9dffee8901a6&amp;dn=The+Veronicas+-+You+Ruin+Me+%282014.Pop%29&amp;tr=udp%3A%2F%2Ftracker.openbittorrent.com%3A80&amp;tr=udp%3A%2F%2Fopen.demonii.com%3A1337&amp;tr=udp%3A%2F%2Ftracker.coppersurfer.tk%3A6969&amp;tr=udp%3A%2F%2Fexodus.desync.com%3A6969","seeders":2,"leechers":0,"uploader":"MeRaDil","files":-1,"time":1416764540,"description":"THE VERONICAS - YOU RUIN ME\n\n &lt;a href=&quot;\nhttp://gifyu.com/images/TheVeronicas.png&quot; rel=&quot;nofollow&quot; target=&quot;_NEW&quot;&gt;\nhttp://gifyu.com/images/TheVeronicas.png&lt;/a&gt;\n\nMPEG4 MUSIC VID\nGeneral\nThe Veronicas - You Ruin Me\nFormat                                   : MPEG-4\nFormat profile                           : Base Media\nCodec ID                                 : isom\nFile size                                : 87.3 MiB\nDuration                                 : 5mn 1s\nOverall bit rate                         : 2 424 Kbps\nMusicVid name                            : You Ruin Me\nAlbum                                    : The Veronicas\nPerformer                                : The Veronicas\nGenre                                    : Pop\nContentType                              : Music Video\nRecorded date                            : 2014\nISRC                                     : The Promo Bay\nCopyright                                : The Veronicas\nCover                                    : Yes\nComment                                  : twin sisters Lisa &amp; Jessica Origliasso\nRating                                   : ***\nMake                                     : MeRaDil\noday                                     : 18-09-2014  Australia\nrati                                     : (Binary)\nArtist url                               : http://www.theveronicas.com\nlabel                                    : RCA\nrelease                                  : Australia . september 18 . 2014\nPart_ID                                  : You Ruin Me\n\nVideo\nID                                       : 1\nFormat                                   : AVC\nFormat/Info                              : Advanced Video Codec\nFormat profile                           : &lt;a class=&quot;__cf_email__&quot; href=&quot;/cdn-cgi/l/email-protection&quot; data-cfemail=&quot;7e361719163e324a504e&quot;&gt;[email&amp;#160;protected]&lt;/a&gt;&lt;script cf-hash='f9e31' type=&quot;text/javascript&quot;&gt;\n/* &lt;![CDATA[ */!function(){try{var t=&quot;currentScript&quot;in document?document.currentScript:function(){for(var t=document.getElementsByTagName(&quot;script&quot;),e=t.length;e--;)if(t[e].getAttribute(&quot;cf-hash&quot;))return t[e]}();if(t&amp;&amp;t.previousSibling){var e,r,n,i,c=t.previousSibling,a=c.getAttribute(&quot;data-cfemail&quot;);if(a){for(e=&quot;&quot;,r=parseInt(a.substr(0,2),16),n=2;a.length-n;n+=2)i=parseInt(a.substr(n,2),16)^r,e+=String.fromCharCode(i);e=document.createTextNode(e),c.parentNode.replaceChild(e,c)}}}catch(u){}}();/* ]]&gt; */&lt;/script&gt;\nFormat settings, CABAC                   : Yes\nFormat settings, ReFrames                : 3 frames\nCodec ID                                 : avc1\nCodec ID/Info                            : Advanced Video Coding\nDuration                                 : 5mn 1s\nBit rate                                 : 2 152 Kbps\nWidth                                    : 1 920 pixels\nHeight                                   : 1 080 pixels\nDisplay aspect ratio                     : 16:9\nFrame rate mode                          : Constant\nFrame rate                               : 25.000 fps\nColor space                              : YUV\nChroma subsampling                       : 4:2:0\nBit depth                                : 8 bits\nScan type                                : Progressive\nBits/(Pixel*Frame)                       : 0.042\nStream size                              : 77.5 MiB (89%)\n\nAudio\nID                                       : 2\nFormat                                   : AAC\nFormat/Info                              : Advanced Audio Codec\nFormat profile                           : LC\nCodec ID                                 : 40\nDuration                                 : 5mn 1s\nBit rate mode                            : Constant\nBit rate                                 : 256 Kbps\nChannel(s)                               : 2 channels\nChannel positions                        : Front: L R\nSampling rate                            : 44.1 KHz\nCompression mode                         : Lossy\nStream size                              : 9.22 MiB (11%)\n &lt;a href=&quot;\nhttps://thepiratebay.se/user/MeRaDil&quot; rel=&quot;nofollow&quot; target=&quot;_NEW&quot;&gt;\nhttps://thepiratebay.se/user/MeRaDil&lt;/a&gt;\n\nThe Veronicas * Twin sisters * Australia * Alternative * Pop * Promo\n\n:)","torrent":{"xt":"urn:btih:971160f653582ee7f95e2bf4bd6b9dffee8901a6","amp;dn":"The+Veronicas+-+You+Ruin+Me+%282014.Pop%29","amp;tr":["udp%3A%2F%2Ftracker.openbittorrent.com%3A80","udp%3A%2F%2Fopen.demonii.com%3A1337","udp%3A%2F%2Ftracker.coppersurfer.tk%3A6969","udp%3A%2F%2Fexodus.desync.com%3A6969"],"infoHash":"971160f653582ee7f95e2bf4bd6b9dffee8901a6","infoHashBuffer":{"type":"Buffer","data":[151,17,96,246,83,88,46,231,249,94,43,244,189,107,157,255,238,137,1,166]},"announce":[],"urlList":[]}}